<svg width="126" height="70" viewBox="0 0 126 70" fill="none" xmlns="http://www.w3.org/2000/svg">
<g clip-path="url(#clip0_7200_1416)">
<path fill-rule="evenodd" clip-rule="evenodd" d="M27.1566 0.168668C27.3252 0.843366 26.7068 0.730917 26.4819 1.40562C26.0321 2.53011 26.4256 5.34136 24.7389 5.06023C22.7148 4.66666 23.9517 -1.01206 27.1566 0.168668Z" fill="#289548"/>
<path fill-rule="evenodd" clip-rule="evenodd" d="M21.5903 3.48596C22.7711 3.76709 23.7269 4.38556 23.8393 5.73496C23.1646 5.56628 22.7148 6.01608 22.4337 5.73496C22.265 4.94781 21.9839 4.10444 21.5903 3.48596Z" fill="#289548"/>
<path fill-rule="evenodd" clip-rule="evenodd" d="M29.0681 2.755C29.5179 2.755 29.7428 3.03613 29.7428 3.4297C29.5741 3.4297 29.6303 3.6546 29.5741 3.76705C29.0681 3.93573 29.1243 3.54215 28.7307 3.59838C28.5621 3.09235 29.0119 3.09235 29.0681 2.755Z" fill="#A2C037"/>
<path fill-rule="evenodd" clip-rule="evenodd" d="M30.9799 3.65464C30.755 3.87954 30.3614 3.87954 30.1365 3.65464C30.024 2.92371 31.2048 2.64259 30.9799 3.65464Z" fill="#A2C037"/>
<path fill-rule="evenodd" clip-rule="evenodd" d="M28.5622 3.99191C28.0562 4.04814 27.6064 3.99191 27.7188 3.48589C28 3.14854 28.7309 3.26099 28.5622 3.99191Z" fill="#A2C037"/>
<path fill-rule="evenodd" clip-rule="evenodd" d="M26.6505 3.48589C27.2128 3.42966 27.4939 3.71079 27.4939 4.16059C27.3815 4.32926 27.0441 4.27304 26.9879 4.49794C26.5943 4.44171 26.257 3.82324 26.6505 3.48589Z" fill="#A2C037"/>
<path fill-rule="evenodd" clip-rule="evenodd" d="M31.7109 3.48596C31.7109 3.71086 31.7109 3.93576 31.7109 4.16066C31.0362 4.32933 31.0362 3.31729 31.7109 3.48596Z" fill="#A2C037"/>
<path fill-rule="evenodd" clip-rule="evenodd" d="M26.1447 8.32129C26.4821 8.32129 26.8194 8.32129 27.213 8.32129C27.213 8.88354 26.9881 9.16466 26.8756 9.55824C26.4258 9.22089 25.7511 8.99599 26.1447 8.32129Z" fill="white"/>
<path fill-rule="evenodd" clip-rule="evenodd" d="M60.4418 9.22087C59.486 9.67067 56.7872 8.48994 55.2129 9.38954C55.7189 7.7028 59.4298 8.65862 60.4418 9.22087Z" fill="#289548"/>
<path fill-rule="evenodd" clip-rule="evenodd" d="M61.4538 8.88354C61.2289 9.67069 61.004 10.4016 60.3855 10.7952C59.8795 10.5141 60.6104 8.88354 61.4538 8.88354Z" fill="#A2C037"/>
<path fill-rule="evenodd" clip-rule="evenodd" d="M55.719 9.72693C59.3174 8.88356 60.7792 11.751 61.4539 14.4498C58.3615 14.1125 56.9559 12.0884 55.5503 10.1205C56.5623 10.0081 57.8555 11.1888 58.8676 11.6948C58.7551 10.7952 57.0684 9.95183 55.719 9.72693Z" fill="#289548"/>
<path fill-rule="evenodd" clip-rule="evenodd" d="M61.7912 9.72693C62.0723 9.8956 62.3534 10.0081 62.2972 10.4016C62.0723 11.0763 61.51 11.4699 60.7229 11.6386C61.004 10.9077 61.5663 10.5141 61.7912 9.72693Z" fill="#A2C037"/>
<path fill-rule="evenodd" clip-rule="evenodd" d="M26.8193 10.0642C27.494 10.1204 27.494 10.7951 28.2249 10.7389C27.7751 10.9638 27.1566 11.02 26.6506 11.2449C26.3133 10.9638 26.7068 10.4578 26.8193 10.0642Z" fill="white"/>
<path fill-rule="evenodd" clip-rule="evenodd" d="M62.8595 12.8755C62.2972 12.8193 62.4659 11.9759 62.0161 11.8073C62.4659 10.6828 63.6466 12.7069 62.8595 12.8755Z" fill="#289548"/>
<path fill-rule="evenodd" clip-rule="evenodd" d="M22.8835 23.4458C22.4337 20.9719 20.0161 18.1607 22.8835 16.6426C22.7148 16.4177 22.7148 15.9679 22.3775 15.9679C21.6466 16.4177 21.5341 17.486 21.1405 18.2169C19.6225 17.3173 21.3092 15.5181 21.9839 14.731C20.6345 14.0563 21.0281 16.6426 19.7349 16.6426C19.7912 15.3494 20.4096 14.6185 20.9719 13.8314C20.8594 13.6065 20.6908 13.3816 20.4659 13.3253C19.3414 14 20.1285 16.5864 18.5542 16.8113C18.5542 16.0241 19.004 15.6306 18.8916 14.731C17.7108 14.731 18.498 15.9117 18.2169 16.98C16.3052 17.992 15.2369 19.7912 13.6626 21.1406C13.3815 17.9358 9.55822 12.9318 15.2369 12.7631C15.8554 13.2691 16.4739 13.8314 16.9799 14.5061C17.8795 10.6266 24.7389 11.0201 23.9518 16.249C24.7952 16.3053 25.245 15.9679 26.2008 16.0804C29.3494 18.4418 27.1566 24.0081 22.8835 23.4458Z" fill="#3A59A1"/>
<path fill-rule="evenodd" clip-rule="evenodd" d="M63.9277 13.5502C63.253 13.6064 62.4659 14.1687 61.8474 13.7189C62.241 13.494 63.7028 12.4257 63.9277 13.5502Z" fill="#A2C037"/>
<path fill-rule="evenodd" clip-rule="evenodd" d="M63.7591 14.4498C63.9278 15.1807 62.6346 15.012 62.3535 14.7871C62.3535 14.2249 63.1969 14.506 63.7591 14.4498Z" fill="#A2C037"/>
<path fill-rule="evenodd" clip-rule="evenodd" d="M63.0282 15.2932C64.6025 16.5302 63.0282 20.5221 60.7792 18.2731C59.9921 16.3053 61.6226 15.6306 63.0282 15.2932ZM61.4539 17.5984C61.9037 17.5422 62.0162 17.1486 62.1286 16.7551C61.5101 16.5864 61.0603 17.1486 61.4539 17.5984Z" fill="#C20D19"/>
<path fill-rule="evenodd" clip-rule="evenodd" d="M62.1849 16.6988C62.0724 17.0924 61.96 17.4859 61.5102 17.5422C61.0604 17.1486 61.5102 16.5863 62.1849 16.6988Z" fill="white"/>
<path fill-rule="evenodd" clip-rule="evenodd" d="M61.1165 18.7791C61.2852 19.4538 60.3293 19.3976 60.0482 19.1165C60.3293 18.6667 60.6667 18.6104 61.1165 18.7791Z" fill="#289548"/>
<path fill-rule="evenodd" clip-rule="evenodd" d="M19.5101 17.3735C14.5623 18.7792 10.7952 24.7952 13.4378 30.5864C14.7872 29.2932 15.9117 26.7631 17.7671 26.5944C17.3735 28.3936 16.1366 29.3494 16.0241 31.486C18.498 30.9237 22.3213 26.6506 22.0964 23.502C21.984 21.1406 20.0723 19.6225 19.5101 17.3735ZM17.2611 22.2651C17.2048 21.6466 17.4297 21.3093 17.5984 20.8595C15.7992 21.478 15.1808 23.3334 14.1125 24.6828C14.5623 22.2651 16.3615 19.6225 19.004 18.7792C19.5663 19.229 19.5663 20.2972 19.5101 21.3655C18.6105 19.9599 18.1607 22.1527 17.2611 22.2651Z" fill="#F5D631"/>
<path fill-rule="evenodd" clip-rule="evenodd" d="M6.29724 22.7711C6.18479 21.9277 5.51009 21.0844 4.04825 21.5342C-0.281071 22.8836 6.80327 27.1004 6.29724 22.7711ZM5.56632 23.1647C4.83539 23.3334 4.72295 22.6024 5.06029 22.3213C5.22897 22.3213 5.39764 22.3213 5.56632 22.3213C5.56632 22.5462 5.56632 22.8273 5.56632 23.1647Z" fill="#F5D631"/>
<path fill-rule="evenodd" clip-rule="evenodd" d="M28.731 23.1647C25.0202 27.0442 25.4137 35.984 17.7671 35.3655C18.3856 34.747 20.0161 35.1968 20.1848 34.1285C19.9037 33.5101 18.9479 33.6225 18.4418 33.2852C19.1165 32.1044 21.3093 31.5984 20.8595 29.7992C19.6226 30.3052 18.7792 31.2048 17.5422 31.7109C17.0924 31.7109 17.3173 31.5984 17.3736 31.3735C19.0041 30.249 20.1848 29.1245 21.3655 27.3815C22.0402 26.4257 22.4338 25.0201 23.1085 24.4016C24.4017 23.2771 26.5945 23.1647 28.731 23.1647Z" fill="#3A59A1"/>
<path fill-rule="evenodd" clip-rule="evenodd" d="M5.56628 25.9197C4.55424 24.7952 2.36147 24.739 2.24902 26.4257C2.13657 28.506 5.95986 29.1807 5.56628 25.9197ZM4.72291 26.988C4.10444 27.1004 3.93576 26.7068 4.04821 26.1446C4.21689 26.1446 4.38556 26.1446 4.55424 26.1446C4.66669 26.3133 4.77914 26.5944 4.72291 26.988Z" fill="#F5D631"/>
<path fill-rule="evenodd" clip-rule="evenodd" d="M27.8877 34.6345C28.0564 34.6907 28.225 34.8032 28.225 34.9719C27.5503 36.6024 26.4258 37.7269 25.2451 38.7952C25.6949 36.996 26.3696 35.4217 27.8877 34.6345Z" fill="#289548"/>
<path fill-rule="evenodd" clip-rule="evenodd" d="M24.7391 34.8032C24.9078 34.8032 25.0765 34.8032 25.2452 34.8032C25.695 36.0402 24.3456 36.8835 24.4018 38.2892C23.5022 37.3896 24.458 35.6466 24.7391 34.8032Z" fill="#289548"/>
<path fill-rule="evenodd" clip-rule="evenodd" d="M29.9678 37.0523C28.5622 37.6145 27.3253 38.4017 26.1445 39.1326C26.3132 37.7832 28.3935 36.8836 29.4618 35.8153C30.1365 35.7591 29.9116 36.49 29.9678 37.0523Z" fill="#289548"/>
<path fill-rule="evenodd" clip-rule="evenodd" d="M33.2852 37.7831C32.2731 39.6947 28.3936 38.0642 27.0442 39.8634C27.5502 38.5702 31.486 36.1526 33.2852 37.7831Z" fill="#A2C037"/>
<path fill-rule="evenodd" clip-rule="evenodd" d="M35.1969 39.6947C35.1407 41.3815 32.7792 40.0883 31.2049 40.2007C29.8555 40.3132 28.731 40.9879 27.719 41.0441C29.2371 39.8634 32.6106 38.7951 35.1969 39.6947Z" fill="#A2C037"/>
<path fill-rule="evenodd" clip-rule="evenodd" d="M31.711 41.2691C31.3174 42.6747 29.2371 41.3815 28.0564 41.9438C28.6749 41.1004 30.699 40.7068 31.711 41.2691Z" fill="#289548"/>
<path fill-rule="evenodd" clip-rule="evenodd" d="M3.48608 41.1003C3.99211 41.2128 4.38568 41.3815 4.89171 41.4377C4.66681 41.775 4.61058 42.3373 4.04833 42.2811C3.65476 42.1124 3.59853 41.5501 3.48608 41.1003Z" fill="white"/>
<path fill-rule="evenodd" clip-rule="evenodd" d="M30.6427 42.6185C30.4178 43.6868 27.6628 43.5181 27.3254 42.6185C28.6186 42.7872 29.6307 42.1687 30.6427 42.6185Z" fill="#289548"/>
<path fill-rule="evenodd" clip-rule="evenodd" d="M8.04024 43.1808C8.09646 43.5743 8.20891 43.9117 8.54626 44.0241C8.32136 44.3053 7.42176 43.7992 6.97196 44.1928C6.85951 43.4057 7.14064 43.0121 8.04024 43.1808Z" fill="white"/>
<path fill-rule="evenodd" clip-rule="evenodd" d="M22.4901 43.6868C22.0965 43.743 21.8154 43.6868 21.6467 43.5181C21.6467 42.9558 22.5463 43.1245 22.4901 43.6868Z" fill="white"/>
<path fill-rule="evenodd" clip-rule="evenodd" d="M20.5783 44.3615C20.8594 44.6426 21.3654 44.6988 21.4217 45.2048C21.1405 45.261 21.1405 45.0361 20.9156 45.0361C20.3534 44.9237 20.5783 45.5422 20.0723 45.3735C20.1285 44.9799 20.6907 45.0361 20.5783 44.3615Z" fill="white"/>
<path fill-rule="evenodd" clip-rule="evenodd" d="M33.7912 46.3294C34.5784 45.7109 35.984 45.0924 36.9398 45.992C37.0523 46.6667 37.5021 47.229 37.1085 47.9037C37.6145 47.9037 38.1768 47.9037 38.6828 47.9037C39.0764 48.3535 39.6949 49.2531 39.1888 49.984C39.47 50.49 40.3133 50.49 40.7631 50.8274C41.0443 51.8394 40.7631 52.1768 40.2571 52.739C39.1326 52.5703 37.9519 52.5141 36.9398 52.233C37.221 51.8956 37.8957 52.0081 37.7832 51.3896C37.8394 50.4338 37.1647 50.2651 36.2089 50.3213C36.4338 49.4217 36.3776 48.9157 35.7029 48.5784C35.1969 48.5221 35.1406 48.9719 34.6346 48.9157C34.8033 48.0161 34.2973 47.8474 33.9599 47.5101C33.4539 47.4539 33.0603 47.5663 32.8917 47.8474C32.4981 47.3976 32.3294 46.7792 31.6547 46.6105C30.98 46.6667 30.6427 47.1165 30.4178 47.6788C30.0804 47.2852 29.7993 46.7792 29.1808 46.6105C28.225 46.7229 27.8314 47.4539 27.9439 48.6908C24.0643 47.2852 28.6748 42.0563 30.1929 46.1045C30.2491 43.9679 34.1286 43.6868 33.7912 46.3294Z" fill="#F5D631"/>
<path fill-rule="evenodd" clip-rule="evenodd" d="M31.8795 47.0041C32.0482 47.3976 32.498 47.5663 32.3855 48.241C31.992 48.5784 31.4297 48.0723 30.6426 48.241C30.8113 47.5663 30.8675 46.8354 31.8795 47.0041Z" fill="#C20D19"/>
<path fill-rule="evenodd" clip-rule="evenodd" d="M28.5622 47.1727C30.4176 46.9478 30.024 48.4096 30.6425 49.0843C32.0481 47.2289 34.016 50.8273 31.1485 50.49C30.9236 50.1526 30.6987 49.8153 30.6425 49.253C30.1365 49.4779 30.8112 49.8715 30.6425 50.3213C30.4176 50.3213 30.1927 50.3213 29.9678 50.3213C30.024 50.6586 30.3614 50.7711 30.3052 51.1647C29.9116 50.3775 28.8433 50.2088 28.7309 49.0843C28.7309 48.6345 29.012 48.4096 29.4056 48.4096C29.0682 47.7912 28.6746 48.9157 28.3373 48.4096C28.2248 47.7912 28.6746 47.7349 28.5622 47.1727Z" fill="#C20D19"/>
<path fill-rule="evenodd" clip-rule="evenodd" d="M19.1728 45.9358C17.8797 46.2731 18.1608 48.1286 17.5986 49.2531C17.6548 48.0161 17.6548 46.7792 17.2612 45.9358C17.0925 45.9358 16.9239 45.9358 16.7552 45.9358C16.1367 47.5663 17.4299 48.5784 17.2612 50.2651C18.1046 49.3655 18.6668 47.735 19.1728 45.9358Z" fill="#289548"/>
<path fill-rule="evenodd" clip-rule="evenodd" d="M19.1728 47.3414C18.6667 48.1286 18.3856 49.0844 18.1045 50.1527C18.6667 49.5342 20.241 47.9599 19.1728 47.3414Z" fill="#289548"/>
<path fill-rule="evenodd" clip-rule="evenodd" d="M34.1285 49.4216C33.7349 49.253 33.0602 49.3092 32.7229 49.0843C32.7229 48.7469 32.498 48.6907 32.5542 48.4096C33.4538 47.3975 35.0281 48.3534 34.1285 49.4216Z" fill="#C20D19"/>
<path fill-rule="evenodd" clip-rule="evenodd" d="M23.6708 51.7269C23.5583 51.1647 22.2089 50.3775 20.8595 50.8836C22.3214 46.6667 28.9559 47.9036 29.7993 51.7269C29.968 51.6145 29.968 51.3334 30.3053 51.3896C30.7551 52.5141 29.9117 52.6265 30.1366 53.9759C28.6186 53.6948 27.5503 53.245 25.976 53.4699C25.1326 53.5824 24.4017 54.3695 23.727 54.3133C22.2089 54.2571 21.9278 52.739 20.7471 51.8956C21.478 51.1085 22.6587 51.1647 23.6708 51.7269Z" fill="#F5D631"/>
<path fill-rule="evenodd" clip-rule="evenodd" d="M62.6908 48.5782C62.8595 48.5782 63.0281 48.5782 63.1968 48.5782C65.3896 52.2891 62.4659 56.8433 59.2048 57.7991C61.3976 56.2248 63.4779 54.3132 63.0281 50.4899C62.9719 49.759 62.3534 49.4216 62.6908 48.5782Z" fill="#289548"/>
<path fill-rule="evenodd" clip-rule="evenodd" d="M64.4338 49.2529C65.1085 49.0843 64.7712 50.3212 64.6025 50.4899C64.1527 50.265 64.2652 49.7027 64.4338 49.2529Z" fill="#A2C037"/>
<path fill-rule="evenodd" clip-rule="evenodd" d="M32.5542 50.8273C32.6666 50.3213 33.004 50.0964 33.0602 49.5903C35.4217 49.4779 33.7349 52.514 32.5542 50.8273Z" fill="#C20D19"/>
<path fill-rule="evenodd" clip-rule="evenodd" d="M42.8435 50.49C43.0122 50.49 43.1809 50.49 43.3495 50.49C44.9801 51.6707 43.968 55.1004 42.5062 55.7189C42.3937 54.3695 43.2933 52.233 42.8435 50.49Z" fill="#289548"/>
<path fill-rule="evenodd" clip-rule="evenodd" d="M65.8395 50.6586C65.8395 51.3896 64.9961 51.3333 64.4338 51.502C64.6025 50.996 65.2772 50.2651 65.8395 50.6586Z" fill="#A2C037"/>
<path fill-rule="evenodd" clip-rule="evenodd" d="M35.3656 52.4016C34.6347 52.514 34.2973 52.1767 33.96 51.8955C33.6226 50.4899 36.3777 50.3775 35.3656 52.4016Z" fill="#C20D19"/>
<path fill-rule="evenodd" clip-rule="evenodd" d="M30.9799 51.3334C31.1485 51.3334 31.3172 52.0643 31.4859 51.502C31.9357 51.8394 31.5421 52.8514 30.8112 52.5703C30.8112 52.1205 30.755 51.5583 30.9799 51.3334Z" fill="#C20D19"/>
<path fill-rule="evenodd" clip-rule="evenodd" d="M62.0161 51.3334C62.2972 51.2771 62.2972 51.502 62.5221 51.502C62.5221 52.9639 61.9598 53.9759 61.6787 55.1567C61.3414 54.2008 61.9036 52.5141 62.0161 51.3334Z" fill="#A2C037"/>
<path fill-rule="evenodd" clip-rule="evenodd" d="M66.5141 51.502C65.9519 52.233 64.9398 52.5141 64.0964 52.9077C64.6025 52.233 65.5583 51.2209 66.5141 51.502Z" fill="#A2C037"/>
<path fill-rule="evenodd" clip-rule="evenodd" d="M11.1327 53.245C12.3134 52.9077 12.6507 51.5583 11.6387 50.8273C9.78325 50.4338 10.1768 52.2892 8.65876 52.233C8.65876 52.0643 8.49008 52.0081 8.49008 51.8956C8.43386 51.5583 8.65876 51.502 8.65876 51.2209C9.72703 51.3896 10.0082 50.8273 10.7391 50.7149C10.9078 49.7028 10.4017 49.3093 10.0644 48.8032C8.88366 48.6346 8.32141 49.0281 7.98406 49.6466C7.98406 50.4338 8.60253 50.6587 8.15273 51.3896C7.64671 51.1085 7.47803 51.4458 7.08446 51.2209C7.75916 50.7149 7.98406 49.5904 7.42181 48.8032C4.61056 47.6225 4.72301 51.5583 6.91578 51.6145C6.40976 51.6707 6.35354 52.233 5.67884 52.1205C5.79129 51.2209 5.22904 51.0522 5.00414 50.5462C2.53024 49.7028 2.64269 53.1888 4.49811 53.1326C5.06036 53.1326 4.94791 52.3454 5.90374 52.4579C5.84751 53.0201 6.29731 53.3012 5.90374 53.6948C5.00414 53.4137 4.32944 53.4137 3.82342 53.9759C3.76719 54.5944 3.82342 55.1004 3.99209 55.5502C4.44189 55.7189 5.06036 55.7751 5.73506 55.7189C6.24109 55.3815 6.18486 54.4257 6.40976 53.8073C6.69088 54.2571 7.53426 54.0884 7.64671 54.6506C6.35354 54.7631 5.79129 56.5623 6.97201 57.237C9.38968 57.5181 8.99611 55.3253 8.04028 54.2571C8.26518 53.9197 8.43386 53.4699 9.10856 53.5824C7.75916 56.3936 11.976 57.1807 11.3576 53.9197C10.9078 52.6265 8.71498 54.0884 8.77121 52.5141C9.78325 51.8956 10.1768 53.245 11.1327 53.245ZM7.30936 52.739C7.30936 52.5703 7.30936 52.4016 7.30936 52.233C7.64671 52.1767 7.75916 52.3454 7.98406 52.4016C7.98406 52.6828 7.70293 52.7952 7.30936 52.739Z" fill="#F5D631"/>
<path fill-rule="evenodd" clip-rule="evenodd" d="M33.7911 52.4016C33.7911 53.1888 33.0602 53.1888 32.5542 53.4699C32.9478 53.0763 33.1727 52.5703 33.7911 52.4016Z" fill="#C20D19"/>
<path fill-rule="evenodd" clip-rule="evenodd" d="M41.7751 56.8996C37.8393 56.9559 37.0522 53.1326 32.3855 54.482C34.1847 51.6707 42.506 51.7832 41.7751 56.8996Z" fill="#F5D631"/>
<path fill-rule="evenodd" clip-rule="evenodd" d="M67.0201 52.7389C66.5141 53.8072 64.8274 53.6385 63.7029 54.1445C64.6587 53.6385 65.6707 52.2329 67.0201 52.7389Z" fill="#A2C037"/>
<path fill-rule="evenodd" clip-rule="evenodd" d="M60.6105 52.7389C61.5663 53.6947 60.3294 55.3252 60.4418 56.5622C60.1045 55.6064 60.1607 53.526 60.6105 52.7389Z" fill="#A2C037"/>
<path fill-rule="evenodd" clip-rule="evenodd" d="M32.3857 53.4137C32.3857 54.2008 31.9921 54.482 31.5423 54.8193C29.4058 54.5382 31.0363 51.7832 32.3857 53.4137Z" fill="#C20D19"/>
<path fill-rule="evenodd" clip-rule="evenodd" d="M44.5864 53.0763C44.8675 53.0201 44.8675 53.245 45.0924 53.245C45.0924 53.9197 44.755 54.2008 44.249 54.3132C44.1366 53.6948 44.5864 53.6385 44.5864 53.0763Z" fill="#A2C037"/>
<path fill-rule="evenodd" clip-rule="evenodd" d="M44.755 54.8193C44.4738 54.3695 47.1726 52.233 46.6666 54.1446C46.1044 54.482 45.261 54.482 44.755 54.8193Z" fill="#A2C037"/>
<path fill-rule="evenodd" clip-rule="evenodd" d="M25.4136 57.6305C24.6827 57.9679 23.9517 58.3614 23.5019 59.0361C20.9156 53.9197 28.6184 52.4016 30.9799 55.2128C34.9718 55.0442 38.6264 59.8795 35.7028 62.8594C34.1285 62.241 34.016 60.2169 33.2851 58.8675C32.5542 60.7229 34.9156 61.8474 34.6907 63.1968C31.261 62.9719 29.8554 60.0482 30.6987 56.5622C29.7991 58.755 26.4819 61.1727 23.7268 59.3735C24.0642 58.5863 24.9638 58.3052 25.4136 57.6305Z" fill="#3A59A1"/>
<path fill-rule="evenodd" clip-rule="evenodd" d="M59.2048 53.976C59.3735 53.976 59.5422 53.976 59.7108 53.976C59.7671 55.494 59.5984 56.731 58.6426 57.2932C59.0924 56.3936 58.8675 54.8756 59.2048 53.976Z" fill="#A2C037"/>
<path fill-rule="evenodd" clip-rule="evenodd" d="M66.0081 54.6506C65.6708 55.6064 64.0965 55.269 63.1969 55.7188C63.1407 55.1566 65.0523 54.257 66.0081 54.6506Z" fill="#A2C037"/>
<path fill-rule="evenodd" clip-rule="evenodd" d="M21.0844 54.6506C20.8033 55.1004 20.4098 55.494 20.2411 56.0563C20.3535 56.5623 20.6347 55.8876 20.9158 56.0563C19.6226 58.9237 23.8395 60.8916 21.5905 62.5221C19.4539 62.0161 19.9037 59.0924 20.0162 56.7872C19.0604 58.9237 19.229 63.8153 21.2531 64.0964C23.1648 64.3775 23.2772 61.735 24.9077 61.2852C26.7632 61.6787 25.5824 64.2651 24.9077 65.1085C18.217 68.5944 16.3053 56.6747 21.0844 54.6506Z" fill="#289548"/>
<path fill-rule="evenodd" clip-rule="evenodd" d="M40.9318 57.2932C41.2129 58.0241 39.9197 58.755 39.3575 58.8675C36.6587 59.3173 35.0844 55.5502 32.8916 55.0442C36.7711 53.4137 38.1767 57.2932 40.9318 57.2932Z" fill="#F5D631"/>
<path fill-rule="evenodd" clip-rule="evenodd" d="M46.8355 54.8192C46.6668 55.4377 45.6548 55.269 45.0925 55.4939C45.205 54.8192 46.2733 54.4819 46.8355 54.8192Z" fill="#A2C037"/>
<path fill-rule="evenodd" clip-rule="evenodd" d="M15.1807 60.3855C14.9558 57.4618 17.5983 55.8313 19.9036 54.8192C18.0481 56.4497 17.5421 59.3734 15.1807 60.3855Z" fill="#A2C037"/>
<path fill-rule="evenodd" clip-rule="evenodd" d="M63.9277 56.3935C63.8715 57.2369 62.747 57.0682 61.8474 57.0682C62.3534 56.6746 62.8595 56.2811 63.9277 56.3935Z" fill="#A2C037"/>
<path fill-rule="evenodd" clip-rule="evenodd" d="M17.4298 58.8113C18.1045 59.3735 17.4861 60.2169 17.5985 60.8916C17.8234 62.747 19.7913 64.0964 19.1728 66.1205C15.6306 67.0201 16.0242 60.1045 17.4298 58.8113Z" fill="#A2C037"/>
<path fill-rule="evenodd" clip-rule="evenodd" d="M30.474 62.8594C29.5181 63.7027 28.5623 64.5461 26.8193 64.6023C26.988 62.9156 29.4057 63.5341 30.474 62.8594Z" fill="#289548"/>
<path fill-rule="evenodd" clip-rule="evenodd" d="M30.98 63.8715C29.9679 64.6586 29.0683 66.2891 27.6627 66.1205C27.5502 64.7711 29.5743 64.265 30.98 63.8715Z" fill="#289548"/>
<path fill-rule="evenodd" clip-rule="evenodd" d="M28.5623 67.5261C28.6185 65.502 30.6426 65.5582 31.5422 64.3775C31.8233 64.3212 31.8795 64.4899 31.8795 64.7148C30.6988 65.5582 30.1928 67.751 28.5623 67.5261Z" fill="#289548"/>
<path fill-rule="evenodd" clip-rule="evenodd" d="M32.0483 64.6024C32.3294 65.4458 31.7672 69.8876 29.7993 68.4257C30.0804 66.6827 31.5423 66.1205 32.0483 64.6024Z" fill="#A2C037"/>
<path fill-rule="evenodd" clip-rule="evenodd" d="M33.1166 65.2771C33.4539 66.1205 33.2852 68.257 32.6105 69.1004C30.5864 68.4819 32.8354 66.3454 33.1166 65.2771Z" fill="#A2C037"/>
<path fill-rule="evenodd" clip-rule="evenodd" d="M33.9599 65.6145C34.466 66.4017 34.7471 68.9318 33.9599 69.4378C32.723 68.6506 34.1286 66.9639 33.9599 65.6145Z" fill="#289548"/>
<path fill-rule="evenodd" clip-rule="evenodd" d="M36.209 65.7831C36.9399 66.6827 38.2331 68.3132 37.6146 69.4377C36.4901 69.6064 36.209 67.4136 36.209 65.7831Z" fill="#289548"/>
<path fill-rule="evenodd" clip-rule="evenodd" d="M34.8032 65.9518C35.3092 66.5703 36.4899 68.8193 35.3092 69.4377C34.3534 69.1566 35.0281 67.1325 34.8032 65.9518Z" fill="#289548"/>
<path fill-rule="evenodd" clip-rule="evenodd" d="M45.261 7.1405C45.4297 7.92765 44.024 8.7148 43.1807 9.05215C44.9799 9.89552 45.9919 8.77102 47.7349 8.37745C47.3975 8.82725 46.8915 9.05215 46.3293 9.22082C47.51 10.1204 49.4778 8.99592 51.2208 8.88348C50.8835 9.44572 49.9839 9.3895 49.3092 9.55817C49.8714 10.1204 50.9959 10.0642 51.7268 10.4015C50.1525 10.514 47.9036 9.8393 45.9919 9.72685C46.4979 10.3453 47.3413 10.5702 48.0722 10.9638C46.5542 10.5702 44.1927 9.27705 42.1686 9.72685C43.2369 10.3453 44.3052 10.9638 45.3172 11.6385C43.518 11.4698 41.775 9.05215 38.6827 10.0642C39.4698 11.1887 41.1566 11.4136 41.8313 12.6505C40.2007 12.1445 38.3453 9.1646 36.4337 11.0762C36.771 11.3574 37.5582 11.2449 37.8393 11.5823C36.8272 11.7509 35.2529 11.3011 34.8594 11.9196C35.7027 10.008 38.4015 10.008 39.02 7.92765C39.4698 8.4899 38.514 9.10837 38.3453 9.67062C39.9758 9.3895 40.8192 8.32123 41.8313 7.42163C42.0562 8.15255 40.7068 8.88348 40.0883 9.33327C42.0562 9.6144 44.2489 8.4899 45.261 7.1405Z" fill="white"/>
<path fill-rule="evenodd" clip-rule="evenodd" d="M41.2691 6.07231C42.2249 5.95986 43.237 4.32934 44.7551 4.16067C44.8675 5.06027 44.4177 5.34139 44.249 5.90364C44.98 5.79119 46.1045 4.61047 47.229 4.32934C47.229 4.83537 47.229 5.39762 47.229 5.90364C48.2972 5.56629 49.9278 5.79119 51.0523 5.56629C51.2772 6.40966 50.49 6.29721 50.5462 6.97191C51.6707 7.30926 53.0763 7.36549 54.0322 7.81529C53.9759 8.60243 53.3575 8.88356 52.7952 9.22091C53.9197 9.83938 54.8755 10.6265 55.9438 11.3012C55.1567 12.3133 53.3575 12.3133 51.6145 12.3695C51.2772 12.5944 52.1768 13.0442 52.2892 13.4378C51.6145 14 50.1527 14.0562 49.1406 13.7751C48.6346 14 49.4217 14.3936 49.3093 14.8434C48.1848 15.0683 46.7229 15.0683 45.8233 14.6747C45.486 14.6747 46.1045 15.3494 45.6547 15.5181C44.3053 15.9679 42.9559 15.4056 42.1687 14.8434C41.6065 15.1245 42.5061 15.7992 42 16.0803C40.0884 15.9117 38.6828 15.237 37.8394 14C37.4458 14.0563 37.8394 14.8996 37.5021 15.0683C36.0402 14.9558 35.8715 13.5502 35.0844 12.8193C33.2852 15.4619 32.0482 18.6105 29.1808 20.1285C28.6747 20.1285 28.5623 19.6787 28.1125 19.6225C29.3494 17.7671 31.6547 17.0362 32.6667 14.8996C31.3173 15.4056 29.6868 18.0482 27.7751 18.0482C29.0121 15.743 31.992 15.1807 33.3414 12.988C31.992 12.988 30.5302 16.0241 28.6185 14.8996C30.249 13.0442 33.5663 12.8755 34.5221 10.3454C33.0041 10.739 31.3173 10.4579 30.6988 9.50203C30.7551 9.10846 31.5984 9.38958 31.7671 9.50203C31.0924 8.60243 29.237 7.98396 30.0241 6.18476C30.6426 6.29721 30.6988 6.97191 30.8675 7.59039C31.4298 6.80324 29.2932 5.06027 31.0362 4.61047C31.6547 6.12854 32.1607 7.75906 33.8474 8.26509C34.241 7.70284 32.8354 7.42171 33.0041 6.52211C33.7912 6.40966 34.0723 6.85946 34.4097 7.19681C34.1286 6.24099 32.9478 6.07231 32.3294 5.45384C33.0603 4.44179 34.0723 5.79119 34.5784 6.12854C34.5784 5.56629 34.0161 5.62251 34.241 4.89159C34.9157 4.61047 35.8715 5.06027 35.6466 6.29721C35.7591 6.74701 36.1527 5.73496 36.49 6.29721C36.2651 7.59039 36.0402 8.82733 35.4217 9.78316C36.2089 8.77111 37.2772 8.04019 37.5021 6.46589C38.1205 6.29721 37.727 7.14059 37.8394 7.53416C39.0201 6.18476 39.976 4.66669 41.8314 4.04822C42.3936 4.27312 41.494 5.51007 41.2691 6.07231ZM40.0322 9.38958C40.6506 8.88356 42 8.20886 41.7751 7.47794C40.7631 8.43376 39.9197 9.44581 38.2892 9.72693C38.4579 9.22091 39.4137 8.54621 38.9639 7.98396C38.3454 10.0643 35.5904 10.0643 34.8033 11.9759C35.1406 11.3575 36.7711 11.8073 37.7832 11.6386C37.5021 11.3012 36.7149 11.4137 36.3776 11.1326C38.2892 9.22091 40.1446 12.2008 41.7751 12.7069C41.1004 11.4699 39.4137 11.1888 38.6265 10.1205C41.6627 9.10846 43.4619 11.5261 45.2611 11.6948C44.249 11.0201 43.1808 10.4016 42.1125 9.78316C44.1928 9.27713 46.498 10.6265 48.0161 11.0201C47.2852 10.6265 46.4418 10.4016 45.9358 9.78316C47.8474 9.89561 50.0964 10.6265 51.6707 10.4579C50.9398 10.1205 49.7591 10.1767 49.2531 9.61448C49.984 9.44581 50.8274 9.44581 51.1647 8.93978C49.478 8.99601 47.5101 10.1205 46.3294 9.22091C46.8916 8.99601 47.3976 8.77111 47.735 8.37753C45.992 8.82733 44.98 9.95183 43.1808 9.05223C44.0241 8.71488 45.4298 7.92774 45.2611 7.14059C44.249 8.48998 42.0563 9.61448 40.0322 9.38958Z" fill="#289548"/>
<path fill-rule="evenodd" clip-rule="evenodd" d="M10.458 28C10.0644 30.1928 12.201 31.3173 12.707 33.2289C9.61463 31.9358 7.53431 30.0803 7.47808 26.7631C7.42186 23.502 10.4018 20.3534 10.0644 17.7109C10.0082 16.9237 9.27728 16.5301 9.38973 15.9679C11.6387 16.6426 13.4379 19.3976 13.0443 22.6024C12.7632 25.0201 10.7953 28.1125 12.8757 30.0803C12.0323 30.1366 11.7512 28.1125 10.458 28Z" fill="#3A59A1"/>
<path fill-rule="evenodd" clip-rule="evenodd" d="M20.3535 30.3053C20.2972 31.4298 18.6667 32.5543 17.5422 33.2852C18.1045 33.735 18.8916 33.9037 19.6225 34.1286C18.9478 34.747 17.3735 34.747 16.3053 34.4659C16.1928 35.2531 16.8113 35.2531 16.8113 35.8715C15.8555 35.9277 15.5181 35.4217 14.8997 35.1968C14.6748 36.4338 15.0121 37.8956 14.8997 39.5261C15.4619 38.2892 16.1928 36.3213 17.486 36.3775C17.0362 38.4016 14.6185 39.6386 15.743 42.1125C17.2049 39.0201 18.8354 35.2531 22.7149 35.1406C22.1527 36.8273 20.0161 36.8273 19.229 38.2892C20.0161 38.4579 21.3655 37.6145 22.3776 38.2892C20.0161 39.8073 16.6426 40.3695 16.3053 43.8555C14.225 43.8555 13.2691 44.98 11.7511 45.5984C11.5262 44.1366 13.5503 43.5743 14.8997 43.1808C14.3374 42.3936 13.6065 42.5623 12.8193 42.6747C12.8756 41.9438 13.5503 41.8876 14.225 41.8314C13.7752 40.988 12.7069 40.6506 12.482 39.5824C13.1005 39.1888 13.494 40.2571 14.0563 40.4257C12.5944 38.3454 10.7952 36.6024 9.16471 34.6908C6.85949 35.7029 5.17274 33.8474 2.3615 34.3535C1.4619 34.5221 1.237 35.3093 -0.0561713 35.0282C-0.224846 32.7229 2.47395 31.8796 3.9358 30.6988C9.72696 30.6988 10.5703 36.6587 14.225 39.0763C13.8876 36.3775 11.0201 36.2651 10.739 33.5101C12.6507 34.0723 13.2691 35.8715 14.0563 37.502C14.3374 36.49 13.8314 34.9157 14.225 33.6788C13.2129 33.3976 13.7752 34.747 12.8193 34.5221C12.7069 33.8474 12.988 33.5101 13.1567 33.1165C12.2009 31.8233 11.0764 30.6988 10.739 28.7872C11.8073 29.5743 12.2571 30.98 13.8876 31.2049C14.8434 29.6868 15.4619 27.8876 17.2049 27.2129C16.6426 28.731 15.0121 30.1366 15.6306 32.2731C17.8796 32.2169 19.2852 31.3735 20.3535 30.3053Z" fill="#289548"/>
<path fill-rule="evenodd" clip-rule="evenodd" d="M8.20877 17.7671C7.98387 18.5542 8.20877 18.3293 8.37744 19.004C7.70274 18.8916 7.53407 19.3414 6.80315 19.1727C8.60234 21.7591 3.65455 21.8153 4.8915 19.1727C5.3413 19.004 6.2409 18.8354 6.63447 19.1727C7.08427 18.6667 7.36539 17.8795 8.20877 17.7671Z" fill="#C20D19"/>
<path fill-rule="evenodd" clip-rule="evenodd" d="M13.2129 49.4217C12.3133 49.253 11.1888 49.7028 11.8073 50.49C12.2571 50.0402 13.1005 50.0964 13.2129 49.4217Z" fill="#289548"/>
<path fill-rule="evenodd" clip-rule="evenodd" d="M16.5303 52.4016C15.0684 51.7269 14.5624 52.9638 13.719 53.4699C12.707 51.1646 14.5624 49.4779 15.7993 48.4096C15.2371 48.1847 14.3375 48.2409 13.5503 48.2409C13.9439 47.6225 12.707 47.4538 12.1447 47.1727C11.47 46.7229 11.47 45.5422 10.2331 45.5984C10.1768 47.51 12.2009 47.3413 13.213 48.1847C11.3013 48.1847 8.43388 47.2851 7.64673 47.3413C9.50215 48.2972 11.47 49.0843 14.4499 48.9156C11.5262 50.2088 12.9319 57.5743 16.1929 55.8875C17.0925 55.4377 17.4299 53.4136 16.5303 52.4016Z" fill="#289548"/>
<path fill-rule="evenodd" clip-rule="evenodd" d="M34.2974 49.984C34.5785 49.478 35.3656 48.8033 35.8717 49.1406C36.209 49.5342 35.9841 50.3213 35.703 50.5462C36.0403 50.9398 37.0524 50.6025 37.446 50.8836C37.6146 51.8394 36.8837 51.9519 36.0403 51.9519C36.3215 50.4338 34.6347 50.8274 34.2974 49.984Z" fill="#C20D19"/>
<path fill-rule="evenodd" clip-rule="evenodd" d="M27.8876 7.59032C29.6868 7.36542 30.6988 10.5702 28.3936 10.5702C28.7872 10.9076 29.1245 11.3574 29.237 11.9759C29.0121 12.9317 28.4498 13.4939 27.1566 13.3815C26.3695 12.8755 26.7068 10.4016 25.0763 11.3012C25.5823 12.0883 26.7631 12.5381 26.3133 13.7188C25.3012 14.6747 23.502 14.1686 23.3333 12.8755C23.4458 11.9196 24.6827 11.9759 24.739 10.9638C24.6827 10.7951 24.5703 10.7951 24.5703 10.6265C23.6145 10.514 23.7269 11.4136 23.502 12.0321C22.8273 12.3694 21.9277 12.2008 21.4217 11.8634C21.253 11.4136 21.1968 10.7951 21.253 10.1204C21.7028 9.83931 22.0402 9.50196 22.6586 9.44574C23.0522 9.72686 23.3896 10.008 23.7269 10.2891C24.2892 10.4578 24.0643 9.83931 24.4016 9.78309C24.4016 8.99594 23.2771 8.93972 22.6586 9.27706C19.4538 7.47787 25.0763 4.32927 24.5703 8.93972C25.245 8.93972 25.5823 8.54614 25.8072 8.09634C25.751 7.53409 25.1325 7.47787 25.1325 6.85939C24.9639 4.10437 29.6868 5.56622 27.8876 7.59032ZM26.8193 9.33329C26.9317 8.93972 27.2129 8.65859 27.1566 8.09634C26.8193 8.09634 26.4819 8.09634 26.0884 8.09634C25.751 8.77104 26.4257 8.99594 26.8193 9.33329ZM26.6506 11.0763C27.1004 10.8514 27.7751 10.7951 28.2249 10.5702C27.494 10.6265 27.494 9.89554 26.8193 9.89554C26.7068 10.2329 26.3133 10.7389 26.6506 11.0763Z" fill="#C20D19"/>
<path fill-rule="evenodd" clip-rule="evenodd" d="M6.8032 44.5863C6.52207 44.5863 6.24095 44.5863 5.95982 44.5863C5.73492 45.5984 6.52207 45.6546 6.63452 46.3293C5.84737 49.8715 1.85541 45.4859 5.39757 44.9237C5.39757 44.3614 4.94778 44.3052 4.5542 44.249C4.61043 46.7791 0.506009 47.004 1.96786 43.7429C2.64255 43.2931 3.4297 43.6305 3.99195 43.8554C4.38553 43.7429 4.16063 42.7871 3.99195 42.6184C2.41766 44.0803 -0.112465 42.2249 1.57428 40.5381C2.13653 40.5943 2.86745 40.4257 3.14858 40.7068C2.36143 38.9638 5.2289 37.7831 5.95982 39.4698C6.1285 40.4257 5.56625 40.5381 5.4538 41.2128C5.62247 41.6626 6.1285 41.6626 6.69075 41.7188C6.52207 40.7068 6.1285 39.9759 6.69075 39.1325C7.92769 38.6827 8.88352 39.0763 9.10842 39.8072C9.61444 41.4377 7.7028 41.6626 6.85942 42.3935C7.92769 43.6305 8.1526 41.6064 9.10842 41.5502C11.1325 41.3815 11.5823 44.1927 9.10842 44.3614C9.55822 45.4297 8.99597 46.1606 8.60239 46.7791C7.14055 46.9478 6.1285 45.9357 6.8032 44.5863ZM3.99195 42.2811C4.61043 42.2811 4.66665 41.7751 4.83533 41.4377C4.3293 41.3253 3.93573 41.1566 3.4297 41.1004C3.59838 41.5502 3.6546 42.1124 3.99195 42.2811ZM6.97187 44.1927C7.42167 43.7992 8.32127 44.3052 8.54617 44.0241C8.20882 43.9116 8.09637 43.5743 8.04014 43.1807C7.14055 43.012 6.85942 43.4056 6.97187 44.1927Z" fill="#C20D19"/>
<path fill-rule="evenodd" clip-rule="evenodd" d="M22.8274 42.1124C22.7711 42.5622 23.1085 42.6746 23.3334 42.7871C23.5021 42.6746 23.1647 41.775 23.5021 41.3815C24.6828 40.257 27.0442 41.9437 25.5824 42.9558C26.2009 43.518 26.5944 44.9236 25.7511 45.5421C25.0201 45.4859 25.1326 44.6425 24.6828 44.3052C25.976 45.6546 23.727 48.9156 22.2651 46.5542C22.1527 45.8795 22.4338 45.5421 22.6025 45.1485C22.3213 45.1485 22.0402 45.1485 21.7591 45.1485C22.4338 46.6666 21.3655 48.1847 20.0161 47.5662C19.735 47.1164 19.3976 46.0481 19.8474 45.4859C18.0482 45.9357 17.4298 43.9678 18.4418 43.0682C19.229 43.1244 19.7912 43.4618 20.5221 43.5742C20.8595 43.5742 20.6346 43.012 20.8595 42.8995C17.2611 44.3052 18.8354 38.6265 21.1968 40.9879C21.2531 41.6064 21.1406 41.9437 21.0282 42.3935C21.0844 42.6184 21.984 42.1686 22.2651 42.0562C21.8715 41.4939 21.1968 41.1566 21.1968 40.1445C22.8836 38.3453 25.0201 41.0441 22.8274 42.1124ZM21.5904 43.518C21.8153 43.6867 22.0402 43.7429 22.4338 43.6867C22.5462 43.1244 21.6466 42.9558 21.5904 43.518ZM20.0161 45.4297C20.5784 45.5421 20.3535 44.9236 20.8595 45.0923C21.0844 45.0923 21.0844 45.3172 21.3655 45.261C21.3093 44.755 20.747 44.6987 20.5221 44.4176C20.6908 45.0361 20.1286 44.9799 20.0161 45.4297Z" fill="#3A59A1"/>
<path fill-rule="evenodd" clip-rule="evenodd" d="M49.6468 67.6947C49.3094 68.2007 50.6026 68.5943 50.4901 69.4377C48.2411 69.2128 46.7231 68.257 45.2612 67.1887C44.9801 67.9196 46.1608 68.7068 45.9359 69.9999C44.5865 69.269 43.3496 68.4256 42.2813 67.4136C41.9439 67.6385 42.0002 68.3132 41.7753 68.6505C40.6508 68.0883 40.4821 66.5702 39.6949 65.6706C39.47 65.8955 39.3576 66.2891 39.3576 66.7389C38.7953 66.1766 38.6829 64.6586 39.0202 63.759C38.6829 62.9718 37.0524 63.4778 37.1086 62.3534C39.0202 62.6345 41.4941 63.9276 42.6749 65.5019C42.45 64.8835 41.9439 64.4899 41.4379 64.0963C43.3496 63.3654 44.9239 64.4337 45.7672 65.3333C46.0484 64.8272 44.5303 64.6023 44.5303 63.759C46.7231 62.6345 47.5102 64.9397 49.0845 65.5019C48.8596 64.3774 47.3978 64.5461 47.1729 63.4216C49.0845 62.2971 50.3215 63.9839 51.8957 64.265C51.3335 63.7027 50.4901 63.4216 49.8154 63.028C50.715 62.016 52.458 62.4658 53.8074 62.6907C53.9198 62.016 52.6267 62.7469 52.7391 62.016C54.201 61.7911 55.0443 60.9477 56.3937 60.6104C55.1006 60.4417 53.6949 61.6224 52.2331 61.8473C52.7953 61.2851 53.4138 60.8353 53.9761 60.273C52.7391 60.3855 51.952 62.4096 49.9841 62.3534C49.9279 61.3413 50.8275 61.3413 50.8275 60.4417C50.209 60.4417 49.6467 61.9598 49.2532 62.6907C48.0162 62.4658 47.5664 63.0843 46.4419 63.028C46.948 62.2409 47.8476 61.8473 48.1849 60.9477C47.0604 61.1726 45.9921 63.8714 44.1929 63.3654C44.5303 62.5782 45.0925 61.9598 45.5986 61.2851C44.9239 61.3975 44.0805 62.9156 43.3496 63.5341C42.8998 63.4216 41.9439 63.759 41.7753 63.3654C40.9319 63.3092 42.1688 62.8594 42.1126 62.522C41.4941 62.5782 41.4941 63.3092 40.707 63.1967C40.0885 62.8594 40.4259 62.6345 39.6387 63.028C39.2451 62.1284 38.6829 60.3293 39.6387 59.5421C40.0885 59.4297 39.9761 59.8795 40.3134 59.8795C40.4821 57.6867 42.2251 58.1365 43.1247 56.7309C43.462 56.8433 43.5182 57.012 43.2933 57.2369C44.1929 57.0682 44.3616 56.2248 45.3737 56.1686C45.3174 56.5622 45.0925 56.8433 45.205 57.4056C46.2733 57.0682 46.948 54.8754 48.8596 54.8192C48.8596 55.4939 48.8596 56.2248 48.8596 56.8995C49.703 56.1686 50.5463 54.5381 51.8395 54.8192C51.952 55.5501 51.5584 55.7188 51.6708 56.3935C52.1769 56.3935 52.9078 55.2128 54.2572 55.5501C54.3134 56.2811 54.0885 56.6746 53.9198 57.1244C55.0443 56.7309 56.3375 55.8313 57.9118 56.4497C57.7431 57.2931 57.3496 57.8554 57.0684 58.5301C58.0243 58.755 59.4861 58.4176 60.5544 58.8674C60.0484 61.004 58.3616 62.016 56.7311 63.028C56.8998 63.759 57.6869 63.9276 57.7994 64.771C57.1247 65.3333 55.213 65.2208 54.4821 64.771C54.4821 65.5582 55.4941 65.3895 55.3255 66.3453C54.3134 66.2891 53.6387 66.6264 52.5142 66.514C52.5142 67.3011 53.3014 67.3574 53.1889 68.257C51.8957 68.257 50.4339 68.3132 49.6468 67.6947Z" fill="#289548"/>
<path d="M56 45.7671C55.9438 45.7671 55.9438 45.7671 55.8876 45.7671C55.8314 45.7671 55.8314 45.7671 55.7751 45.7671C55.7189 45.7671 55.7189 45.7671 55.6627 45.7109C55.6065 45.6546 55.6065 45.6546 55.5502 45.6546L55.6065 45.2048C55.6627 45.2048 55.6627 45.2611 55.7189 45.2611C55.7751 45.2611 55.8314 45.3173 55.8876 45.3173C55.9438 45.3173 56.0563 45.3173 56.1125 45.2611C56.1687 45.2048 56.2249 45.1486 56.2812 45.0362L55.2129 42.8434H55.8314L56.5623 44.4177L57.237 42.8434H57.8555L56.8434 45.0924C56.7872 45.2048 56.731 45.3173 56.6747 45.4297C56.6185 45.5422 56.5623 45.5984 56.5061 45.6546C56.4498 45.7109 56.3936 45.7671 56.2812 45.7671C56.1687 45.7671 56.1125 45.7671 56 45.7671Z" fill="currentColor"/>
<path d="M58.755 44.0241H58.9799L59.8795 42.7871H60.5542L59.486 44.1927L60.6667 45.7108H60.0482L59.0924 44.4739H58.8113V45.7108H58.249V42.7871H58.8113V44.0241H58.755Z" fill="currentColor"/>
<path d="M60.8916 45.7108V42.7871H62.1285C62.241 42.7871 62.4097 42.8433 62.5221 42.8996C62.6346 42.9558 62.747 43.012 62.8032 43.1245C62.8595 43.2369 62.9719 43.3494 62.9719 43.4618C63.0281 43.5743 63.0281 43.6867 63.0281 43.7992C63.0281 43.9116 63.0281 44.0241 62.9719 44.1365C62.9157 44.249 62.8595 44.3614 62.8032 44.4739C62.747 44.5863 62.6346 44.6425 62.5221 44.6988C62.4097 44.755 62.2972 44.755 62.1285 44.755H61.4539V45.767H60.8916V45.7108ZM61.4539 44.249H62.1285C62.241 44.249 62.2972 44.1927 62.4097 44.1365C62.4659 44.0241 62.5221 43.9116 62.5221 43.7992C62.5221 43.7429 62.5221 43.6305 62.4659 43.5743C62.4659 43.518 62.4097 43.4618 62.3534 43.4056C62.2972 43.3494 62.2972 43.3494 62.241 43.2931C62.1848 43.2931 62.1285 43.2369 62.0723 43.2369H61.4539V44.249Z" fill="currentColor"/>
<path d="M64.0965 42.7871H64.6025L65.727 45.7108H65.1647L64.8836 44.9799H63.8716L63.5904 45.7108H63.0282L64.0965 42.7871ZM64.7712 44.5863L64.3776 43.4056L63.9278 44.5863H64.7712Z" fill="currentColor"/>
<path d="M65.7269 42.4498V41.9437H66.1767V42.4498H65.7269ZM66.0643 45.7108V42.7871H66.6265V45.7108H66.0643ZM66.5141 42.4498V41.9437H66.9639V42.4498H66.5141Z" fill="currentColor"/>
<path d="M69.7189 42.7871V45.7108H69.1566V44.4739H67.8072V45.7108H67.245V42.7871H67.8072V43.9678H69.1566V42.7871H69.7189Z" fill="currentColor"/>
<path d="M70.1687 44.249C70.1687 44.0803 70.2249 43.9117 70.2811 43.743C70.3374 43.5743 70.4498 43.4056 70.5623 43.2932C70.6747 43.1807 70.8434 43.0683 71.0121 42.9558C71.1807 42.8434 71.4056 42.8434 71.6305 42.8434C71.9117 42.8434 72.1366 42.8996 72.3052 43.0121C72.5301 43.1245 72.6426 43.2932 72.755 43.4619L72.3052 43.743C72.249 43.6868 72.1928 43.5743 72.1928 43.5181C72.1366 43.4619 72.0803 43.4056 72.0241 43.4056C71.9679 43.3494 71.9117 43.3494 71.7992 43.3494C71.743 43.3494 71.6868 43.3494 71.5743 43.3494C71.4056 43.3494 71.2932 43.4056 71.1807 43.4619C71.0683 43.5181 71.0121 43.5743 70.8996 43.6868C70.8434 43.7992 70.7872 43.9117 70.731 44.0241C70.6747 44.1366 70.6747 44.249 70.6747 44.3615C70.6747 44.4739 70.6747 44.6426 70.731 44.755C70.7872 44.8675 70.8434 44.9799 70.8996 45.0924C70.9558 45.2048 71.0683 45.2611 71.1807 45.3173C71.2932 45.3735 71.4056 45.3735 71.5181 45.3735C71.5743 45.3735 71.6305 45.3735 71.743 45.3735C71.7992 45.3735 71.8554 45.3173 71.9679 45.3173C72.0241 45.2611 72.0803 45.2611 72.1366 45.2048C72.1928 45.1486 72.249 45.0924 72.249 44.9799L72.6988 45.2611C72.6426 45.3735 72.5864 45.486 72.4739 45.5422C72.3615 45.5984 72.3052 45.7109 72.1928 45.7671C72.0803 45.8233 71.9679 45.8795 71.8554 45.8795C71.743 45.9358 71.6305 45.9358 71.4619 45.9358C71.237 45.9358 71.0683 45.8795 70.8996 45.8233C70.7309 45.7109 70.5623 45.5984 70.4498 45.486C70.3374 45.3173 70.2249 45.2048 70.1687 44.9799C70.2249 44.6426 70.1687 44.4177 70.1687 44.249Z" fill="currentColor"/>
<path d="M73.2049 42.7871H73.7672V43.8554H74.3294C74.4981 43.8554 74.6105 43.8554 74.723 43.9116C74.8354 43.9678 74.9479 44.0241 75.0603 44.0803C75.1728 44.1365 75.229 44.249 75.2852 44.3614C75.3414 44.4739 75.3414 44.5863 75.3414 44.755C75.3414 44.9237 75.3414 45.0361 75.2852 45.1486C75.229 45.261 75.1728 45.3735 75.0603 45.4297C74.9479 45.4859 74.8354 45.5984 74.723 45.5984C74.6105 45.6546 74.4418 45.6546 74.3294 45.6546H73.1487V42.7871H73.2049ZM73.7672 45.261H74.2732C74.4419 45.261 74.5543 45.2048 74.6105 45.1486C74.6667 45.0361 74.723 44.9237 74.723 44.8112C74.723 44.6425 74.6667 44.5301 74.6105 44.4739C74.5543 44.3614 74.3856 44.3614 74.2732 44.3614H73.7672V45.261Z" fill="currentColor"/>
<path d="M76.3535 44.0241H76.5784L77.478 42.7871H78.1527L77.0844 44.1927L78.2652 45.7108H77.5905L76.6346 44.4739H76.3535V45.7108H75.7913V42.7871H76.3535V44.0241Z" fill="currentColor"/>
<path d="M79.3334 42.7871H79.8394L80.9639 45.7108H80.4017L80.1206 44.9799H79.1085L78.8274 45.7108H78.2651L79.3334 42.7871ZM80.0081 44.5863L79.6145 43.4056L79.1647 44.5863H80.0081Z" fill="currentColor"/>
<path d="M83.1005 42.7871H83.6065L84.731 45.7108H84.1688L83.8877 44.9799H82.8756L82.5945 45.7108H82.0322L83.1005 42.7871ZM83.7752 44.5863L83.3816 43.4056L82.9318 44.5863H83.7752Z" fill="currentColor"/>
<path d="M84.7872 44.249C84.7872 44.0803 84.8435 43.9117 84.8997 43.743C84.9559 43.5743 85.0684 43.4056 85.1808 43.2932C85.2933 43.1807 85.4619 43.0683 85.6306 42.9558C85.7993 42.8434 86.0242 42.8434 86.2491 42.8434C86.5302 42.8434 86.7551 42.8996 86.98 43.0121C87.2049 43.1245 87.3174 43.2932 87.4298 43.4619L86.98 43.743C86.9238 43.6868 86.8675 43.5743 86.8113 43.5181C86.7551 43.4619 86.6989 43.4056 86.6427 43.4056C86.5864 43.3494 86.5302 43.3494 86.4178 43.3494C86.3615 43.3494 86.3053 43.3494 86.1929 43.3494C86.0242 43.3494 85.9117 43.4056 85.7993 43.4619C85.6868 43.5181 85.6306 43.5743 85.5182 43.6868C85.4619 43.7992 85.4057 43.9117 85.3495 44.0241C85.2933 44.1366 85.2933 44.249 85.2933 44.3615C85.2933 44.4739 85.2933 44.6426 85.3495 44.755C85.4057 44.8675 85.4619 44.9799 85.5182 45.0924C85.5744 45.2048 85.6868 45.2611 85.7993 45.3173C85.9117 45.3735 86.0242 45.3735 86.1366 45.3735C86.1929 45.3735 86.2491 45.3735 86.3615 45.3735C86.4178 45.3735 86.474 45.3173 86.5864 45.3173C86.6427 45.2611 86.6989 45.2611 86.7551 45.2048C86.8113 45.1486 86.8676 45.0924 86.8676 44.9799L87.3174 45.2611C87.2611 45.3735 87.2049 45.486 87.0924 45.5422C86.98 45.5984 86.9238 45.7109 86.8113 45.7671C86.6989 45.8233 86.5864 45.8795 86.474 45.8795C86.3615 45.9358 86.2491 45.9358 86.1366 45.9358C85.9117 45.9358 85.7431 45.8795 85.5744 45.8233C85.4057 45.7109 85.237 45.5984 85.1246 45.486C85.0121 45.3173 84.8997 45.2048 84.8435 44.9799C84.7872 44.6426 84.7872 44.4177 84.7872 44.249Z" fill="currentColor"/>
<path d="M89.004 45.767C88.7791 45.767 88.6104 45.7108 88.4418 45.6546C88.2731 45.5984 88.1044 45.4859 87.992 45.3172C87.8795 45.2048 87.7671 45.0361 87.7108 44.8112C87.6546 44.6425 87.5984 44.4739 87.5984 44.249C87.5984 44.0803 87.6546 43.8554 87.7108 43.6867C87.7671 43.518 87.8795 43.3494 87.992 43.2369C88.1044 43.1245 88.2731 43.012 88.4418 42.8996C88.6104 42.8433 88.8353 42.7871 89.004 42.7871C89.2289 42.7871 89.3976 42.8433 89.5663 42.8996C89.7349 43.012 89.9036 43.1245 90.0161 43.2369C90.1285 43.4056 90.241 43.518 90.2972 43.7429C90.3534 43.9116 90.4096 44.0803 90.4096 44.3052C90.4096 44.4739 90.3534 44.6988 90.2972 44.8674C90.241 45.0361 90.1285 45.2048 90.0161 45.3172C89.9036 45.4297 89.7349 45.5421 89.5663 45.6546C89.3976 45.7108 89.2289 45.767 89.004 45.767ZM88.1606 44.249C88.1606 44.3614 88.1606 44.4739 88.2169 44.6425C88.2731 44.755 88.3293 44.8674 88.3855 44.9799C88.4418 45.0923 88.5542 45.1486 88.6667 45.2048C88.7791 45.261 88.8916 45.261 89.004 45.261C89.1165 45.261 89.2851 45.2048 89.3976 45.1486C89.51 45.0923 89.5663 45.0361 89.6787 44.9237C89.7349 44.8112 89.7912 44.6988 89.8474 44.5863C89.9036 44.4739 89.9036 44.3614 89.9036 44.249C89.9036 44.1365 89.9036 44.0241 89.8474 43.8554C89.7912 43.7429 89.7349 43.6305 89.6787 43.518C89.6225 43.4056 89.51 43.3494 89.3976 43.2931C89.2851 43.2369 89.1727 43.2369 89.0602 43.2369C88.9478 43.2369 88.7791 43.2931 88.6667 43.3494C88.5542 43.4056 88.4418 43.4618 88.3855 43.5743C88.3293 43.6867 88.2731 43.7992 88.2169 43.9116C88.1606 44.0241 88.1606 44.1365 88.1606 44.249Z" fill="currentColor"/>
<path d="M93.1084 45.7108H90.9156V42.7871H91.4779V45.2048H92.6024V42.7871H93.1646V45.2048H93.6144V46.4417H93.0522V45.7108H93.1084Z" fill="currentColor"/>
<path d="M94.0081 45.7108V42.7871H94.5703V45.7108H94.0081Z" fill="currentColor"/>
<path d="M96.0884 42.7871H96.5944L97.7189 45.7108H97.1567L96.8756 44.9799H95.8635L95.5824 45.7108H95.0201L96.0884 42.7871ZM96.7069 44.5863L96.3133 43.4056L95.8635 44.5863H96.7069Z" fill="currentColor"/>
<path d="M100.249 45.7108H98.0563V42.7871H98.6185V45.2048H99.743V42.7871H100.305V45.2048H100.755V46.4417H100.193V45.7108H100.249Z" fill="currentColor"/>
<path d="M101.149 45.7108V42.7871H101.711V45.7108H101.149Z" fill="currentColor"/>
<path d="M103.904 45.7108V44.6425H103.454L102.779 45.7108H102.161L102.892 44.5301C102.723 44.4739 102.61 44.3614 102.498 44.1927C102.386 44.0241 102.329 43.8554 102.329 43.6867C102.329 43.5743 102.329 43.4618 102.386 43.3494C102.442 43.2369 102.498 43.1245 102.554 43.0682C102.61 42.9558 102.723 42.8996 102.835 42.8433C102.948 42.7871 103.06 42.7871 103.229 42.7871H104.466V45.7108H103.904ZM103.904 43.2931H103.285C103.229 43.2931 103.173 43.2931 103.116 43.3494C103.06 43.3494 103.004 43.4056 103.004 43.4618C102.948 43.518 102.948 43.518 102.892 43.5743C102.892 43.6305 102.835 43.6867 102.835 43.7429C102.835 43.8554 102.892 43.9678 102.948 44.0803C103.004 44.1365 103.116 44.1927 103.229 44.1927H103.847V43.2931H103.904Z" fill="currentColor"/>
<path d="M108.402 44.9799C108.402 45.0924 108.402 45.2048 108.345 45.3173C108.289 45.4297 108.233 45.486 108.12 45.5422C108.008 45.5984 107.952 45.6546 107.839 45.7109C107.727 45.7671 107.614 45.7671 107.446 45.7671H106.04V42.8434H107.614C107.727 42.8434 107.783 42.8434 107.896 42.8996C107.952 42.9558 108.064 43.0121 108.12 43.0683C108.177 43.1245 108.233 43.237 108.233 43.2932C108.289 43.4056 108.289 43.4619 108.289 43.5743C108.289 43.743 108.233 43.8554 108.177 43.9679C108.12 44.0803 108.008 44.1928 107.839 44.249C108.008 44.3052 108.12 44.3615 108.233 44.5301C108.402 44.6426 108.402 44.8113 108.402 44.9799ZM106.602 43.2932V44.0241H107.39C107.502 44.0241 107.558 43.9679 107.614 43.9117C107.671 43.8554 107.727 43.743 107.727 43.6305C107.727 43.5181 107.671 43.4056 107.614 43.3494C107.558 43.2932 107.502 43.237 107.39 43.237H106.602V43.2932ZM107.839 44.8675C107.839 44.8113 107.839 44.755 107.839 44.6988C107.839 44.6426 107.783 44.5864 107.783 44.5864C107.727 44.5301 107.727 44.5301 107.671 44.4739C107.614 44.4739 107.558 44.4177 107.558 44.4177H106.659V45.2048H107.502C107.558 45.2048 107.614 45.2048 107.671 45.1486C107.727 45.1486 107.783 45.0924 107.783 45.0924C107.839 45.0362 107.839 45.0362 107.839 44.9799C107.839 44.9799 107.839 44.9237 107.839 44.8675Z" fill="currentColor"/>
<path d="M109.92 45.7108V42.7871H110.482V45.7108H109.92Z" fill="currentColor"/>
<path d="M110.932 44.249C110.932 44.0803 110.988 43.9117 111.044 43.743C111.1 43.5743 111.213 43.4056 111.325 43.2932C111.438 43.1807 111.606 43.0683 111.775 42.9558C111.944 42.8434 112.169 42.8434 112.394 42.8434C112.675 42.8434 112.9 42.8996 113.125 43.0121C113.349 43.1245 113.462 43.2932 113.574 43.4619L113.125 43.743C113.068 43.6868 113.012 43.5743 112.956 43.5181C112.9 43.4619 112.843 43.4056 112.787 43.4056C112.731 43.3494 112.675 43.3494 112.562 43.3494C112.506 43.3494 112.45 43.3494 112.337 43.3494C112.169 43.3494 112.056 43.4056 111.944 43.4619C111.831 43.5181 111.775 43.5743 111.663 43.6868C111.606 43.7992 111.55 43.9117 111.494 44.0241C111.438 44.1366 111.438 44.249 111.438 44.3615C111.438 44.4739 111.438 44.6426 111.494 44.755C111.55 44.8675 111.606 44.9799 111.663 45.0924C111.719 45.2048 111.831 45.2611 111.944 45.3173C112.056 45.3735 112.169 45.3735 112.281 45.3735C112.337 45.3735 112.394 45.3735 112.506 45.3735C112.562 45.3735 112.675 45.3173 112.731 45.3173C112.787 45.2611 112.843 45.2611 112.9 45.2048C112.956 45.1486 113.012 45.0924 113.012 44.9799L113.462 45.2611C113.406 45.3735 113.349 45.486 113.237 45.5422C113.125 45.5984 113.068 45.7109 112.956 45.7671C112.843 45.8233 112.731 45.8795 112.619 45.8795C112.506 45.9358 112.394 45.9358 112.281 45.9358C112.056 45.9358 111.888 45.8795 111.719 45.8233C111.55 45.7109 111.382 45.5984 111.269 45.486C111.157 45.3173 111.044 45.2048 110.988 44.9799C110.988 44.6426 110.932 44.4177 110.932 44.249Z" fill="currentColor"/>
<path d="M113.968 42.7871H116.386V45.7108H115.823V43.2931H114.53V45.7108H113.968V42.7871Z" fill="currentColor"/>
<path d="M117.904 42.7871H118.41L119.534 45.7108H118.972L118.635 44.9799H117.623L117.341 45.7108H116.779L117.904 42.7871ZM118.522 44.5863L118.129 43.4056L117.679 44.5863H118.522Z" fill="currentColor"/>
<path d="M122.289 42.7871V45.7108H121.727V44.4739H120.378V45.7108H119.815V42.7871H120.378V43.9678H121.727V42.7871H122.289Z" fill="currentColor"/>
<path d="M122.964 45.7108V42.7871H123.526V45.7108H122.964Z" fill="currentColor"/>
<path d="M123.807 42.4498V41.9437H124.257V42.4498H123.807ZM124.145 45.7108V42.7871H124.707V45.7108H124.145ZM124.594 42.4498V41.9437H125.044V42.4498H124.594Z" fill="currentColor"/>
<path d="M39.0764 41.3815H40.8194C40.0885 35.7028 42.5624 37.1084 45.5985 21.4779C45.2049 20.241 44.7551 19.1165 44.2491 18.1606H49.4218C48.8033 29.6305 48.8033 34.0161 52.1768 41.4377H53.5262C55.3254 43.8554 53.1889 45.8233 50.2089 47.2851C48.8595 47.7912 49.2531 48.5783 49.0282 48.4659C48.5784 48.2972 48.0724 47.51 48.8033 46.6104C49.8154 45.261 50.2089 44.0803 49.478 42.506H43.1246C42.3937 44.0803 42.7873 45.261 43.7993 46.6104C44.474 47.5663 44.0242 48.2972 43.5744 48.4659C43.3495 48.5783 43.7431 47.7912 42.3937 47.2851C39.4138 45.7671 37.2772 43.7992 39.0764 41.3815ZM45.711 41.3815H47.5101C47.7913 35.4779 47.4539 29.3494 46.3294 24.3454C42.5624 35.253 44.5865 39.0201 45.711 41.3815Z" fill="currentColor"/>
<path d="M63.1969 31.7671C63.1969 31.992 63.3656 32.1044 63.5343 31.8233C67.3576 24.6265 66.9078 23.8394 65.6708 21.6466H69.3816C71.4057 25.6386 63.8716 29.8554 63.9278 33.4538C63.9278 34.4659 65.8957 35.9277 66.7391 36.2651C69.1567 37.3334 70.8435 38.9639 69.3816 40.8755H65.6708C67.47 38.4578 66.1768 37.0522 63.5343 34.8595C63.3094 34.6908 63.1969 34.8032 63.1969 35.0281C63.3656 37.4458 64.1527 39.3574 64.5463 40.8755H60.4419C60.8917 39.3012 61.6226 37.3896 61.7913 35.0281C61.7913 34.8032 61.6226 34.6908 61.4539 34.8595C58.8676 37.0522 57.5744 38.4578 59.3174 40.8755H55.6628C54.2009 38.9639 55.8877 37.3334 58.3053 36.2651C59.1487 35.9277 61.0604 34.4097 61.1166 33.4538C61.1728 29.8554 53.6387 25.6386 55.6628 21.6466H59.3736C58.1367 23.8394 57.6869 24.5703 61.5102 31.8233C61.6788 32.1044 61.8475 31.992 61.8475 31.7671C62.0162 29.9679 61.1728 23.5583 60.4981 21.6466C61.6226 21.6466 63.1407 21.6466 64.6025 21.6466C63.8716 23.5583 62.972 29.9679 63.1969 31.7671Z" fill="currentColor"/>
<path d="M76.6909 28.7872C79.1086 29.5181 80.7953 30.6426 79.3335 31.9358H75.6226C77.3094 29.2932 74.8917 29.5743 74.4981 28.7872C74.3294 32.498 74.8917 36.4338 75.7351 40.0884H77.7592C78.3214 38.8514 78.6588 37.0522 77.9841 35.8153C77.5343 34.9719 77.6467 33.7912 78.0403 33.6787C78.209 33.6225 78.3776 34.6908 79.1086 35.253C80.5704 36.4338 81.8074 38.6827 80.964 40.8755H71.7993C73.6547 35.253 73.0363 26.8193 71.7993 21.6466H80.6829C82.1447 23.5583 80.4017 25.1326 78.0403 26.257C76.972 26.6506 77.3094 27.2691 77.1407 27.2129C76.8033 27.0442 76.4098 26.4819 76.972 25.6948C77.8154 24.6265 78.0965 23.6707 77.5343 22.4338H75.7351C75.1728 23.8956 74.8355 25.4137 74.6668 27.0442C74.5543 28.3374 75.8475 28.506 76.6909 28.7872Z" fill="currentColor"/>
<path d="M83.213 40.8755C85.0684 35.253 84.45 26.8193 83.213 21.6466H92.0965C93.5584 23.5583 91.8154 25.1326 89.454 26.257C87.8797 26.988 86.1929 28.8434 85.968 30.755C85.7994 32.5542 86.6427 38.9639 87.3174 40.8755H83.213ZM86.2492 27.6627C88.5544 25.6948 89.7913 24.4016 88.8917 22.4338H87.0363C86.5865 23.7832 86.0243 25.4699 85.9118 27.494C85.8556 27.7189 86.1367 27.8876 86.2492 27.6627Z" fill="currentColor"/>
<path d="M99.1809 28.7872C101.599 29.5181 103.285 30.6426 101.823 31.9358H98.1126C99.7993 29.2932 97.3817 29.5743 96.9881 28.7872C96.8194 32.498 97.3817 36.4338 98.225 40.0884H100.249C100.811 38.8514 101.149 37.0522 100.474 35.8153C100.024 34.9719 100.137 33.7912 100.53 33.6787C100.699 33.6225 100.868 34.6908 101.599 35.253C103.06 36.4338 104.297 38.6827 103.454 40.8755H94.2893C96.1447 35.253 95.5263 26.8193 94.2893 21.6466H103.173C104.635 23.5583 102.892 25.1326 100.53 26.257C99.462 26.6506 99.7993 27.2691 99.6307 27.2129C99.2933 27.0442 98.8997 26.4819 99.462 25.6948C100.305 24.6265 100.586 23.6707 100.024 22.4338H98.1688C97.6066 23.8956 97.2692 25.4137 97.1006 27.0442C97.0443 28.3374 98.3375 28.506 99.1809 28.7872Z" fill="currentColor"/>
<path d="M109.47 24.2892C109.133 23.2771 108.795 22.4338 108.402 21.6466H112.506C112 31.1486 112 34.5221 115.036 40.8755H110.932C111.269 35.9277 110.988 30.6988 110.088 26.5382C106.603 36.5462 109.301 38.9639 109.92 40.8755H105.815C104.916 35.3655 106.996 37.3896 109.47 24.2892Z" fill="currentColor"/>
<path d="M119.366 40.8755C119.028 40.8755 118.466 40.7631 118.353 40.5382C118.691 40.0321 117.735 38.5703 116.667 35.6466C115.486 32.3293 115.88 28.1687 117.679 25.1888C118.578 23.5583 119.084 22.3213 118.466 21.6466H121.333C121.671 21.6466 122.233 21.7591 122.345 21.984C122.008 22.49 122.964 23.9518 124.032 26.8755C125.213 30.1928 124.819 34.3534 123.02 37.3334C122.121 38.9639 121.615 40.2008 122.233 40.8755H119.366ZM118.578 25.6948C115.542 31.5984 120.096 34.9719 121.165 38.5141C121.502 38.0643 121.839 37.502 122.177 36.8836C125.213 30.9799 120.659 27.6064 119.59 24.0643C119.197 24.5141 118.86 25.0763 118.578 25.6948Z" fill="currentColor"/>
</g>
<defs>
<clipPath id="clip0_7200_1416">
<rect width="125.1" height="70" fill="white"/>
</clipPath>
</defs>
</svg>
